<svg id="Layer_1" data-name="Layer 1" xmlns="http://www.w3.org/2000/svg" viewBox="0 0 228.1 100"><defs><style>.cls-1{fill:#6e3b3c;}.cls-2{fill:#713760;}.cls-3{fill:#ae5f13;}.cls-4{fill:#9e5688;}.cls-5{fill:#e8a71c;}.cls-6{fill:#ce67b2;}.cls-7{fill:#fece4a;}.cls-8{fill:#e39ad4;}</style></defs><title>Styled-Components</title><g id="layer101"><path class="cls-1" d="M70,84.3V68.5l8.3-7.1c29.5-25.2,39-31.9,42.5-29.8,2.5,1.6,2.7,6.9.3,11a13.68,13.68,0,0,0-2.1,5.5c0,1.8.5,1.7,4.3-1.4,6.4-5.3,13.8-9.7,16.2-9.7,5,0,5.8,4.3,2,11.4a21.2,21.2,0,0,0-2.5,8.1c0,3.2.1,3.3,2.4,2.2a5.62,5.62,0,0,0,3-4.1,18.54,18.54,0,0,1,3.1-6.1c3-4,9.3-29.7,7.4-30.4a12.39,12.39,0,0,1-3.2-2.4c-1.7-1.7-1.9-2.8-1.3-7.9.3-3.3.8-6.4,1.2-6.9s4.5-.9,9.5-.9H170V19.7l-3.1.9c-3.1.9-3.3,1.4-6.5,12.9a121.14,121.14,0,0,0-3.7,16.6,18.43,18.43,0,0,1-2.4,7.5,23.31,23.31,0,0,0-2.8,5.4,30.36,30.36,0,0,1-2.6,5.6,16.15,16.15,0,0,0-1.9,7.3c0,5.2-2.5,10.2-9,18l-5.1,6.1H70Z" transform="translate(0.1 0)"/></g><g id="layer102"><path class="cls-2" d="M70,84.2V68.5L81.2,59c29.4-24.9,36.1-29.5,39.6-27.4,2.4,1.5,2.6,4.8.7,7.8-.9,1.4-1.3,3.1-.9,3.7s.3.9-.3.6c-1-.6-4.4,2.6-7.3,6.8-.7,1.1.2.4,2.1-1.5,3.2-3.2,3.4-3.3,3.7-1.3s.9,1.8,7.5-3.3c8.6-6.5,14-8.5,16.4-6.2,1.1,1.2,1.3,2.4.8,4.5a10.25,10.25,0,0,0-.6,3.6c.1.5-.3.6-.8.2s-1.5.4-2.2,1.6a49.28,49.28,0,0,1-5.2,6.8l-4.1,4.6,4.5-4.3,4.6-4.3L139,56c-.6,4.6-.5,4.9,1,3.5a5.71,5.71,0,0,1,2.7-1.5c1.2,0,2.3-2.3,2.3-4.8,0-.9,1.1-3,2.5-4.6a18.52,18.52,0,0,0,2.5-3.3c0-.3,1.4-6.4,3-13.6,2.2-9.4,2.7-13.3,1.9-13.6a12.39,12.39,0,0,1-3.2-2.4c-1.7-1.7-1.9-2.8-1.3-7.9.3-3.3.8-6.4,1.2-6.9s4.5-.9,9.5-.9H170V9.9c0,9.8,0,9.9-2.5,10.5a6.9,6.9,0,0,1-3.4.2c-.5-.3-1.1,1.3-1.4,3.7s-1.5,6.9-2.5,10.2-2.7,8.7-3.7,12a67.16,67.16,0,0,1-4,10.3c-1.3,2.3-1.9,4.2-1.4,4.2,1.6,0-2.1,5.6-8,12.3-3.9,4.4-4.3,5.1-1.5,2.5,2.2-2.1,4.3-3.8,4.7-3.8,1.5,0,.6,8.3-1.3,12a69.58,69.58,0,0,1-7,9.9l-5.1,6.1H70ZM129.5,69c2.1-2.2,3.7-4,3.4-4s-2.3,1.8-4.4,4-3.7,4-3.4,4S127.4,71.2,129.5,69Z" transform="translate(0.1 0)"/></g><g id="layer103"><path class="cls-3" d="M70,84.2V68.5L81.2,59c28.9-24.5,36.2-29.5,39.5-27.4a5.09,5.09,0,0,1,2.1,2.6c.5,2.5-7.8,12.6-14.7,17.9-4.2,3.3-5.7,4.9-4.1,4.4,3.3-.9,9.1-4.9,12.1-8.3,2.4-2.7,2.4-2.7,2.7-.5s.9,1.8,7.5-3.3c8.6-6.5,14-8.5,16.4-6.1,1.5,1.4,1.3,2-1.5,6.4-3.6,5.6-7,9.4-13.1,14.6-2.5,2-4,3.7-3.4,3.7,1.3,0,5.7-3.3,10.9-8.2l4.1-3.9-.7,4.9-.6,4.9,2.8-1.6c2.7-1.5,5.3-6.3,4.1-7.5-.4-.3-.1-.6.5-.6,2.4,0,4.2-5.4,8.7-25.5,1.2-5.2,1.3-7.1.4-7.4a12.39,12.39,0,0,1-3.2-2.4c-1.7-1.7-1.9-2.8-1.3-7.9.3-3.3.8-6.4,1.2-6.9s4.6-.9,9.5-.9h9l-.2,9.9c-.2,9.4-.4,10-2.5,10.5a7.4,7.4,0,0,1-3.6.1c-.9-.4-2.3,3.3-5.1,13.7-4.9,18.7-5.6,20.6-8.3,24.9-1.3,2-2,3.9-1.7,4.3.8.8-7.2,11-11.6,14.7-3.4,2.8-3.4,2.9-.6,1.5a23.74,23.74,0,0,0,5.9-4.5c1.7-1.7,3.3-3.1,3.8-3.1,1.6,0,.8,8.1-1.2,12a69.58,69.58,0,0,1-7,9.9l-5.1,6.1H70ZM129.5,69c2.1-2.2,3.7-4,3.4-4s-2.3,1.8-4.4,4-3.7,4-3.4,4S127.4,71.2,129.5,69Z" transform="translate(0.1 0)"/></g><g id="layer104"><path class="cls-4" d="M70,97.2c0-2.3,1.5-4.2,8.3-9.9,4.5-3.9,9.3-8.4,10.7-9.9s-2.1,1.1-7.6,5.9S71,92,70.6,92,70,86.7,70,80.3V68.5l6.3-5.2c3.4-2.8,12.1-10.1,19.2-16.1,14.9-12.6,22.5-17.3,25.2-15.6,3,1.9,2.6,3.8-2.1,10-4.8,6.4-13.4,13.5-17.5,14.5-2.3.6-2.2.7.9.8,3.7.1,6.5-1.3,11.2-5.7,3.5-3.2,4.8-2.1,2,1.7l-2.1,2.9,2.4-1.2a9.31,9.31,0,0,0,3.7-3.4c1.7-3.3,13.5-12,18.1-13.4,3.2-1,4-.9,5.4.5s1.3,2-1.6,6.6a69,69,0,0,1-15.6,16.4c-3.1,2.3-3.4,2.8-1.5,2.2,2.8-.8,12-7.5,12-8.7a1,1,0,0,1,1-.8c.6,0,1,.8,1,1.8,0,2.1-28,30.8-37.6,38.5L93.3,100H70Zm34-33c.8-.9-.3-.2-2.5,1.5a73,73,0,0,0-7,6.4C91.9,75.1,99.8,68.4,104,64.2Z" transform="translate(0.1 0)"/><path class="cls-4" d="M98.5,98.1c1.1-1,4.7-4.2,8-7.1s12-11.1,19.4-18.2,14.4-13.4,15.7-14c2.2-1.1,4.8-6.1,3.7-7.2-.4-.3-.1-.6.5-.6,2.4,0,4.2-5.4,8.7-25.5,1.2-5.2,1.3-7.1.4-7.4a12.39,12.39,0,0,1-3.2-2.4c-1.7-1.7-1.9-2.8-1.3-7.9.3-3.3.8-6.4,1.2-6.9s4.6-.9,9.5-.9h9l-.2,9.9c-.2,9.4-.4,10-2.5,10.5a7.4,7.4,0,0,1-3.6.1c-.9-.4-2.3,3.3-5.1,13.7-4.9,18.7-5.6,20.6-8.3,24.9-1.3,2-2,3.9-1.7,4.3,1,.9-7.8,11.6-12.6,15.2-2.4,1.9-4,3.4-3.5,3.4,1.3,0,7.5-3.9,10.1-6.3,2.4-2.1,2.5-2,3.6,3.1.3,1.4.1,2-.6,1.5s-.8,0-.4,1,.3,1.7-.2,1.7-1.5,1.5-2.2,3.3c-1.5,3.5-3.7,6.3-8.4,10.8l-3,2.9H114C96.9,100,96.6,100,98.5,98.1Z" transform="translate(0.1 0)"/></g><g id="layer105"><path class="cls-5" d="M70,97.2c0-2.3,1.5-4.2,8.3-9.9,4.5-3.9,9.3-8.4,10.7-9.9s-2.1,1.1-7.6,5.9S71,92,70.6,92,70,86.7,70,80.2V68.4L74.4,65c2.4-1.9,9.2-7.7,15-12.8s11.2-9,11.7-8.7,3.8-1.9,7.3-4.9A73.86,73.86,0,0,1,117,32c2.6-1.4,5-.7,5,1.4s-17.1,19-20.8,20.7S98,57,102.3,57c3.4,0,6.3-1.6,10.9-5.8,3.6-3.4,4.8-2,1.8,2.1-1.2,1.7-1.7,2.6-.9,2A4.8,4.8,0,0,1,117,54c.9,0,2.9-1.4,4.6-3.1,5.1-5.3,17.2-14.1,19-13.7,3.8.7,2.2,3.4-8.8,14.4-7.4,7.4-10.9,11.5-10,11.9,2,.7,7.1-1.9,11.5-6s4.7-4.1,4.7-1.7c0,2.1-28,30.8-37.6,38.5L93.3,100H70Zm34-33c.8-.9-.3-.2-2.5,1.5a73,73,0,0,0-7,6.4C91.9,75.1,99.8,68.4,104,64.2Z" transform="translate(0.1 0)"/><path class="cls-5" d="M98.5,98.1c5.9-5.5,23.4-21.2,28-25.1,16.7-14,17.9-15.3,21.2-21.9,2-3.9,4.5-11.8,6.3-19.5,1.7-7.2,3-13.1,3-13.2a7.31,7.31,0,0,0-2-.7c-2.1-.5-3.4-3-4.4-8.7-.5-2.7-.4-3.1.4-1.5s.9,1,.6-2.4c-.3-3-.2-4,.5-3,.7,1.2.9,1.1.9-.3S154,0,159.1,0c5.3,0,6,.2,5.5,1.8-.6,2-3.5,13.6-4.2,17.2-.3,1.4-1.9,7.9-3.5,14.5s-3.2,13.4-3.4,15.1c-.4,4.9-5.2,13.2-8.5,14.9-2,1-2.7,2-2.3,3.1s-1.6,3.8-6.3,8.5c-5.2,5.2-6.4,6.9-4.9,6.9,2.2,0,7.8-3.1,11.2-6.3,2.4-2.1,2.5-2,3.6,3.1.3,1.4.1,2-.6,1.5s-.8,0-.4,1,.3,1.7-.2,1.7-1.5,1.5-2.2,3.3c-1.5,3.5-3.7,6.3-8.4,10.8l-3,2.9H114C97,100,96.6,100,98.5,98.1Z" transform="translate(0.1 0)"/></g><g id="layer106"><path class="cls-6" d="M70,97.4c0-1.6,1.1-3.5,3.2-5.2C75,90.7,80.8,85.7,86,81c15.9-14.2,23.8-21.1,30-25.9,3.2-2.5,9.6-7.7,14.2-11.4,8-6.5,11.6-7.9,12.6-4.9.5,1.6-20.6,23.2-22.7,23.2-1.3.1-1.2.4.4,1.6a4.55,4.55,0,0,0,3.2,1c.7-.3,1.3-.1,1.3.4s-.9,1-2,1c-1.3,0-3.7,2.4-7.1,7-7.1,9.8-13.6,15.1-26.3,21.5-8.3,4.1-12.2,5.5-15.3,5.5C70.4,100,70,99.8,70,97.4Z" transform="translate(0.1 0)"/><path class="cls-6" d="M103.7,94.8c3.2-2.9,8.8-8.1,12.5-11.6s7.1-6.1,7.7-5.7,1.1-.1,1.1-1.1c0-1.6,7.6-9.2,15.8-15.6,5.2-4.2,9.8-14.4,13.2-29.2,1.7-7.2,3-13.1,3-13.2a7.31,7.31,0,0,0-2-.7c-2-.5-3.1-2.6-4.4-8.2-.5-2.3-.4-2.7.4-1.5s1,.5.6-2.9c-.3-3-.1-4,.5-3,.7,1.2.9,1.1.9-.3S154,0,159.1,0c5.3,0,6,.2,5.5,1.8-.6,2-3.5,13.6-4.2,17.2-.3,1.4-1.9,7.9-3.5,14.5s-3.2,13.4-3.4,15.1c-.4,4.9-5.2,13.2-8.5,14.9-2,1-2.7,2-2.3,3.1.6,1.7-9.7,13-13.2,14.4-1.9.8-1.9.8-.1,1.5,1.1.5,3.4,0,6-1.3l4.3-2-.2,2.9a11.59,11.59,0,0,1-3.2,6.2,66.51,66.51,0,0,0-5.6,7.5L128,100H97.8Z" transform="translate(0.1 0)"/><path class="cls-6" d="M70,78.8V70.4L82.3,59.5c6.8-5.9,12.6-10.7,12.9-10.4s3.4-2.1,6.9-5.2c13.8-12.1,18.3-14.7,19.5-11.4,1.2,3-17.1,21.1-22.9,22.6-2.1.6-2.1.6.6,1.9,2.2,1.1,3.5,1.1,5.9.2l3.1-1.1L106,58.5c-1.3,1.4-2.8,2.5-3.5,2.5s-3.7,2.7-7,6.1A164.71,164.71,0,0,1,72.8,85.4L70,87.2Z" transform="translate(0.1 0)"/></g><g id="layer107"><path class="cls-7" d="M70,97.4c0-1.6,1.1-3.5,3.2-5.2,1.8-1.5,7.3-6.3,12.3-10.8,16.4-14.7,28-24.6,29.5-25.2.8-.3,4.4-3.1,8-6.1,14.5-12.6,17.9-14.7,19.4-12.3.5.8-11.5,13-20.1,20.5L118,62l2.5,1.6c1.3.9,2.9,1.3,3.5.9s1-.1,1,.4-.9,1.1-2,1.1c-1.3,0-3.7,2.4-7.1,7-7.1,9.8-13.6,15.1-26.3,21.5-8.3,4.1-12.2,5.5-15.3,5.5C70.4,100,70,99.8,70,97.4Z" transform="translate(0.1 0)"/><path class="cls-7" d="M103.7,94.8c3.2-2.9,8.8-8.1,12.5-11.6s7.1-6.1,7.7-5.7,1.1,0,1.1-.9c0-1.5,12.7-13.7,17.1-16.3,3.7-2.2,9.2-14.7,12.2-27.8,1.4-6.1,2.9-11.8,3.2-12.8.6-1.3.2-1.7-1.4-1.7-2.5,0-2.5-.1-.9-10.2L156.3,0h3.9c2.1,0,3.8.3,3.8.8s-.9,4.5-2.1,9.2-2.2,9.4-2.3,10.6c-1.6,12.7-10.4,37.2-15.3,42.7-1.7,1.8-3.8,2.4-2.8.7.3-.6-.1-.7-.9-.4-2,.8-2.1,2.4-.1,2.4,2.5,0,1.8,1.1-5.7,8-4.5,4.1-6.9,7-6.4,7.8,1,1.7,3.1,1.5,7.5-.7l3.8-2-.2,3a11.59,11.59,0,0,1-3.2,6.2,66.51,66.51,0,0,0-5.6,7.5L128,100H97.8Z" transform="translate(0.1 0)"/><path class="cls-7" d="M70,78.8V70.5l10.2-9c5.6-5,12.3-11,14.7-13.5,3-2.9,4-3.6,2.8-1.8A16.75,16.75,0,0,0,96,49.5c0,.3,4.3-3.2,9.5-7.8,11.2-9.9,14-11.6,15.8-9.8.9,1-.8,3.2-8.6,10.7-5.5,5.3-11.3,10.4-13,11.4l-3,1.9,2.7,1.2c2.1,1,3.4,1,5.8.1l3.1-1.1L106,58.5c-1.3,1.4-2.8,2.5-3.5,2.5s-3.7,2.7-7,6.1A164.71,164.71,0,0,1,72.8,85.4L70,87.2Z" transform="translate(0.1 0)"/></g><g id="layer108"><path class="cls-8" d="M126.1,79.7a4.64,4.64,0,0,1-1.1-2.8c0-1.8,12.4-13.8,17.1-16.6,3.7-2.2,9.2-14.7,12.2-27.8,1.4-6.1,2.9-11.8,3.2-12.8.6-1.3.2-1.7-1.4-1.7-2.5,0-2.5-.1-.9-10.2L156.3,0h3.9c2.1,0,3.8.3,3.8.8s-.9,4.5-2.1,9.2-2.2,9.4-2.3,10.6c-1.6,12.7-10.4,37.2-15.3,42.7-1.7,1.8-3.8,2.4-2.8.7.3-.6-.1-.7-.9-.4-2,.8-2.1,2.4-.1,2.4,2.6,0,1.7,1.3-5.9,8.2C129.1,79.2,127,80.6,126.1,79.7Z" transform="translate(0.1 0)"/><path class="cls-8" d="M116.4,58.8c-.7-2.4,2.5-5.8,15.8-16.4,6.5-5.2,9.1-6.4,10.2-4.5.7,1.1-22.2,23.1-24,23.1C117.7,61,116.8,60,116.4,58.8Z" transform="translate(0.1 0)"/><path class="cls-8" d="M96.4,53.5c-1-2.6.2-4.1,9.6-12.3,10.8-9.4,13.5-11.1,15.2-9.4,1.4,1.4-3.8,7.2-15.5,17.3C98.6,55.3,97.3,55.9,96.4,53.5Z" transform="translate(0.1 0)"/></g><path d="M19,76.1.5,64.4.2,59.8l-.3-4.5L18.1,44c10-6.2,18.9-11.5,19.8-11.7,1.9-.5,4.8,4.5,3.4,5.7-.4.4-8.2,5.4-17.3,11S7.4,59.4,7.2,59.5s7,4.9,16,10.5C43.5,82.9,42.7,82.1,40.4,85.4c-1.1,1.4-2.1,2.5-2.4,2.5S29.2,82.6,19,76.1Z" transform="translate(0.1 0)"/><path d="M188,84.3a10.92,10.92,0,0,1-2-3.2c.1-.3,8-5.5,17.6-11.5S221,58.7,220.8,58.5s-7.9-5.1-17.3-11-17.2-10.9-17.4-11.1.4-1.5,1.3-2.9c1.1-1.7,2.3-2.4,3.3-2.1s9.6,5.6,19.5,11.7L228,54.2v4.6l-.1,4.7-10.2,6.3c-5.6,3.4-14.1,8.7-18.9,11.7l-8.7,5.4Z" transform="translate(0.1 0)"/></svg>